<svg xmlns="http://www.w3.org/2000/svg" viewBox="0 0 449.3 180.33"><defs><style>.cls-1{fill:#0189cf;}.cls-2{fill:#0088cf;}.cls-3{fill:#32a2da;}.cls-4{fill:#0191d2;}.cls-5{fill:#93c1e7;}.cls-6{fill:#accfed;}.cls-7{fill:#79b6e3;}.cls-8{fill:#5a5a5c;}</style></defs><title>foton-1</title><g id="katman_2" data-name="katman 2"><g id="katman_1-2" data-name="katman 1"><path class="cls-1" d="M356.75,77.82c0,8-1.41,15.67-5.25,22.75-5.85,10.77-15,17.1-26.89,19.54a40.19,40.19,0,0,1-27.27-3.47c-9.55-5-15.71-12.82-18.7-23.07-3.39-11.61-3-23.2,1.76-34.36,5.59-13,15.67-20.49,29.53-22.83,9.31-1.57,18.35-.49,26.76,4,9.92,5.33,15.76,13.84,18.55,24.59A49.42,49.42,0,0,1,356.75,77.82Zm-15.33-.16a38.65,38.65,0,0,0-5.57-20.16c-8.72-14.17-28.53-13.47-37.18-1.7C294.13,62,292.23,69,291.91,76.54c-.33,7.83,1,15.3,5.27,22s10,10.72,18,11.18c8.66.5,15.29-3.31,20.16-10.28C339.76,93.12,341.38,85.91,341.42,77.66Z"/><path class="cls-1" d="M375,37.52H388.1c.29,4.48.58,8.88.87,13.47,1.28-1.71,2.31-3.32,3.56-4.74a30.26,30.26,0,0,1,21.28-10.38,28.37,28.37,0,0,1,19.66,5.4c5.75,4.28,9,10.18,10.53,17.06a56.23,56.23,0,0,1,1.34,11.26c.15,16.2.07,32.4.07,48.6v.9h-15v-1.4c0-15.6.05-31.2,0-46.8,0-5.53-1-10.91-4.1-15.66-2.82-4.29-6.92-6.46-11.95-7.1-12.89-1.65-22.44,8.62-23.69,18.92a23.21,23.21,0,0,0-.11,2.64q0,23.94,0,47.87v1.52h-15C375.16,92,376,64.78,375,37.52Z"/><path class="cls-2" d="M1.56,5.46H63V17.73H16.5v37.8H59.39V67.66h-43V119.1H1.56Z"/><path class="cls-1" d="M230.75,48.82H218.13V37.51h12.62V36.08c0-4.28,0-8.56,0-12.84,0-.38.26-1,.53-1.09,4.64-1.46,9.3-2.85,14.09-4.29V37.41h21.3V48.78h-21.3v1.37c0,14.48,0,29,0,43.44a23.66,23.66,0,0,0,1.45,8.93,9.15,9.15,0,0,0,8.91,6.08,45.09,45.09,0,0,0,4.79-.15c1.54-.14,3.07-.45,4.68-.71.22,3.7.45,7.43.7,11.47-2.72.52-5.4,1.16-8.11,1.5a30.06,30.06,0,0,1-13.39-1c-7.18-2.37-11.11-7.58-12.49-14.76a61.81,61.81,0,0,1-1.15-10.93c-.13-14.56-.05-29.12-.05-43.68Z"/><path class="cls-3" d="M120,121.81a13.9,13.9,0,1,1,14-13.89A13.87,13.87,0,0,1,120,121.81Z"/><path class="cls-1" d="M120.07,27.77a13.8,13.8,0,0,1-13.88-13.85A13.9,13.9,0,1,1,134,14,13.79,13.79,0,0,1,120.07,27.77Z"/><path class="cls-3" d="M165.23,108a13.9,13.9,0,0,1-27.79,0,13.9,13.9,0,1,1,27.79,0Z"/><path class="cls-4" d="M88.17,90.73A13.88,13.88,0,0,1,88,63a13.88,13.88,0,1,1,.15,27.76Z"/><path class="cls-3" d="M120.08,58.69A13.9,13.9,0,1,1,134,44.83,13.94,13.94,0,0,1,120.08,58.69Z"/><path class="cls-1" d="M151.38,63a13.75,13.75,0,0,1,13.85,13.85A13.89,13.89,0,1,1,151.38,63Z"/><path class="cls-1" d="M151.3,27.77A13.89,13.89,0,1,1,165.23,14,13.78,13.78,0,0,1,151.3,27.77Z"/><path class="cls-5" d="M137.55,44.78c-.33-7,5.55-13.88,13.86-13.9a13.9,13.9,0,1,1-13.86,13.9Z"/><path class="cls-6" d="M184.34,90.63A13.62,13.62,0,0,1,170.53,76.8a13.89,13.89,0,1,1,13.81,13.83Z"/><path class="cls-5" d="M102.07,44.8A13.89,13.89,0,1,1,88.28,30.88,13.84,13.84,0,0,1,102.07,44.8Z"/><path class="cls-6" d="M198.31,45A13.89,13.89,0,1,1,184.46,30.9,13.79,13.79,0,0,1,198.31,45Z"/><path class="cls-7" d="M120.07,90.66a13.86,13.86,0,1,1,.34-27.72A14,14,0,0,1,134,76.87,13.79,13.79,0,0,1,120.07,90.66Z"/><path class="cls-8" d="M5.38,143.23H19.74l-.54,3H8.32l-1.85,9.53h10l-.59,3h-10L3.49,171.55H0Z"/><path class="cls-8" d="M37.68,159.24c0,6.26-4.46,12.77-11.26,12.77-5.08,0-7.94-3.78-7.94-8.36,0-6.68,4.66-12.9,11.26-12.9C35.24,150.75,37.68,154.91,37.68,159.24Zm-15.59,4.28c0,3.32,1.81,5.72,4.79,5.72,4.12,0,7.23-5.3,7.23-10,0-2.36-1.1-5.67-4.75-5.67C25,153.53,22.05,158.86,22.09,163.52Z"/><path class="cls-8" d="M49.23,145.75l-1.06,5.47h4.88L52.5,154H47.63l-1.89,9.87a17.74,17.74,0,0,0-.38,3.27A1.72,1.72,0,0,0,47.29,169a10,10,0,0,0,1.64-.13l-.17,2.73a8.17,8.17,0,0,1-2.69.38c-3.1,0-4.28-1.89-4.28-3.95a19.16,19.16,0,0,1,.42-3.82l2-10.29H41.29l.54-2.73h2.9l.88-4.58Z"/><path class="cls-8" d="M72.58,159.24c0,6.26-4.45,12.77-11.26,12.77-5.08,0-7.94-3.78-7.94-8.36,0-6.68,4.66-12.9,11.26-12.9C70.14,150.75,72.58,154.91,72.58,159.24ZM57,163.52c0,3.32,1.81,5.72,4.79,5.72,4.12,0,7.23-5.3,7.23-10,0-2.36-1.09-5.67-4.75-5.67C59.89,153.53,57,158.86,57,163.52Z"/><path class="cls-8" d="M75,171.55l2.73-14.41c.46-2.27.71-4.24,1-5.92h3.11l-.51,4h.09a8.87,8.87,0,0,1,7.51-4.46c2.44,0,5.17,1.39,5.17,5.67a19.57,19.57,0,0,1-.38,3.28l-2.26,11.85H88l2.22-11.72a13.3,13.3,0,0,0,.3-2.61c0-2.06-.8-3.57-3.19-3.57s-6,3-6.93,8l-1.85,9.88Z"/><path class="cls-8" d="M105.67,167.18a10.69,10.69,0,0,0,6,1.8c3.19,0,6.13-1.89,6.13-5.33,0-2.1-1.22-3.66-4.16-5.29-3.61-1.94-5.63-4.2-5.63-7.27,0-5,4.37-8.32,9.58-8.32a10.9,10.9,0,0,1,5.8,1.51l-1.26,2.82a9.54,9.54,0,0,0-4.92-1.3c-3.49,0-5.59,2.31-5.59,4.62s1.43,3.61,4.37,5.25c3.49,1.85,5.42,4.07,5.42,7.56,0,4.91-3.86,8.74-10.21,8.74-2.85,0-5.62-.93-6.8-1.94Z"/><path class="cls-8" d="M138.51,171.55a50.5,50.5,0,0,1,.47-5.25h-.09c-2.22,4.2-5,5.71-7.89,5.71-3.58,0-5.84-2.86-5.84-6.72,0-7.06,5.21-14.54,14.07-14.54a19.05,19.05,0,0,1,5.46.8l-2.06,10.59a46.9,46.9,0,0,0-.88,9.41Zm2.27-17.73a9.24,9.24,0,0,0-2.43-.29c-5.25,0-9.54,5.5-9.58,11.13,0,2.27.8,4.49,3.49,4.49,2.89,0,6.34-3.78,7.35-9.2Z"/><path class="cls-8" d="M147.16,176.17a10.87,10.87,0,0,0,5.38,1.34c3.4,0,6.09-1.76,7.31-7.26l.67-3h-.12c-1.77,2.9-4.25,4.33-7.06,4.33-4.08,0-6.18-3.45-6.18-7.06,0-6.89,5-13.74,12.9-13.74a16.67,16.67,0,0,1,6.51,1.43L163.46,169c-.84,4.29-2,7.27-4.11,9.08a10.75,10.75,0,0,1-7.1,2.27,12,12,0,0,1-6.09-1.43Zm15.59-21.93a8.56,8.56,0,0,0-3.36-.67c-5.09,0-8.57,5.29-8.61,10.33,0,2.23.79,4.87,3.9,4.87s6-3.78,6.77-7.77Zm-5.21-11.38c-.08,1.59.67,2.85,2.31,2.85a3.45,3.45,0,0,0,3.36-2.85h2.19a5.63,5.63,0,0,1-5.59,5.08c-3.74,0-4.75-2.52-4.37-5.08Z"/><path class="cls-8" d="M169,171.55l5.67-29.83h3.49l-5.71,29.83Z"/><path class="cls-8" d="M178.58,171.55l3.91-20.33H186l-3.91,20.33Z"/><path class="cls-8" d="M188.24,171.55l5.63-29.83h3.48l-3.57,18.7h.09c.63-.72,1.38-1.48,1.89-2.06l7.18-7.14h4.29l-8.87,8.35,6.09,12h-3.86l-4.87-10-2.57,2.31-1.47,7.73Z"/><path class="cls-8" d="M237.59,147A11.68,11.68,0,0,0,232,145.8a11.92,11.92,0,0,0-8.1,3.19,14.86,14.86,0,0,0-4.33,10.75c0,5.09,2.31,9.24,8.61,9.24a14.38,14.38,0,0,0,6-1.21l.46,2.85a18.54,18.54,0,0,1-6.42,1.35L227,173.65a2.76,2.76,0,0,1,2.26,2.73c0,2.39-2.31,3.61-4.53,3.61a4.88,4.88,0,0,1-2.78-.76l.76-1.8a4.1,4.1,0,0,0,2.1.63c1,0,1.85-.51,1.85-1.47s-.88-1.51-2.73-1.68l2.14-3c-6.38-.5-10.21-4.91-10.21-11.67a17.67,17.67,0,0,1,6-13.66,16.08,16.08,0,0,1,10.67-3.82c3.15,0,5.38.8,6.14,1.39Z"/><path class="cls-8" d="M257.5,159.24c0,6.26-4.45,12.77-11.26,12.77-5.08,0-7.94-3.78-7.94-8.36,0-6.68,4.66-12.9,11.26-12.9C255.06,150.75,257.5,154.91,257.5,159.24Zm-15.59,4.28c0,3.32,1.81,5.72,4.79,5.72,4.12,0,7.23-5.3,7.23-10,0-2.36-1.09-5.67-4.75-5.67C244.81,153.53,241.87,158.86,241.91,163.52Zm3-18a2.17,2.17,0,0,1,2.18-2.22,1.94,1.94,0,0,1,2,2.06,2.16,2.16,0,0,1-2.19,2.22A1.94,1.94,0,0,1,244.9,145.54Zm7.68,0a2.18,2.18,0,0,1,2.19-2.22,1.94,1.94,0,0,1,2,2.06,2.15,2.15,0,0,1-2.18,2.22A1.94,1.94,0,0,1,252.58,145.54Z"/><path class="cls-8" d="M257.92,169.4l9.87-11c1.72-1.89,2.85-2.94,4.2-4.24l0-.13H261.61l.55-2.85h14.62l-.47,2.31-9.74,10.83a48.24,48.24,0,0,1-4.2,4.2v.13h11.26l-.55,2.86H257.54Z"/><path class="cls-8" d="M296.85,151.22l-2.73,14.4c-.42,2.27-.71,4.25-.92,5.93h-3.15l.54-3.83h-.08a9,9,0,0,1-7.18,4.29c-2.61,0-5.34-1.26-5.34-5.88a18.71,18.71,0,0,1,.38-3.4l2.18-11.51H284l-2.14,11.34a13.88,13.88,0,0,0-.38,3c0,2.1.88,3.53,3.28,3.53s5.75-2.94,6.59-7.44l2-10.41Zm-13-5.68a2.18,2.18,0,0,1,2.19-2.22,1.94,1.94,0,0,1,2,2.06,2.15,2.15,0,0,1-2.18,2.22A1.94,1.94,0,0,1,283.83,145.54Zm7.69,0a2.17,2.17,0,0,1,2.18-2.22,1.94,1.94,0,0,1,2,2.06,2.16,2.16,0,0,1-2.19,2.22A1.94,1.94,0,0,1,291.52,145.54Z"/><path class="cls-8" d="M299.12,171.55l2.73-14.41c.42-2.27.71-4.24.92-5.92h3.07l-.55,3.82h.13c1.89-2.82,4.45-4.29,7.14-4.29,3.11,0,4.58,2,4.75,4.54a8.73,8.73,0,0,1,7.47-4.54c2.36,0,4.92,1.52,4.92,5.34a20.72,20.72,0,0,1-.34,3.44l-2.27,12h-3.4l2.18-11.72a13.35,13.35,0,0,0,.3-2.65c0-2.14-.8-3.53-3.07-3.53-2.52,0-5.5,2.94-6.34,7.48l-2,10.42h-3.36l2.27-11.93a13,13,0,0,0,.25-2.48c0-1.72-.46-3.49-3-3.49s-5.71,3.36-6.51,7.69l-1.89,10.21Z"/><path class="cls-8" d="M333.09,171.55l5.68-29.83h3.48l-5.71,29.83Z"/><path class="cls-8" d="M357.33,170.37a14,14,0,0,1-6.72,1.6c-5.38,0-7.73-3.66-7.73-8.15,0-6.14,4.54-13.07,11.09-13.07,3.86,0,6,2.31,6,5.21,0,5.34-6,6.77-13.52,6.64a8.42,8.42,0,0,0,.42,3.86,4.61,4.61,0,0,0,4.53,2.73,11.43,11.43,0,0,0,5.47-1.42Zm-3.87-16.89c-3.31,0-5.79,3.24-6.63,6.43,5.46,0,9.74-.67,9.74-3.82C356.57,154.41,355.31,153.48,353.46,153.48Z"/><path class="cls-8" d="M361.69,171.55l2.48-13.11c.51-2.65.84-5.33,1.05-7.22h3.07c-.17,1.42-.34,2.85-.55,4.41h.13c1.3-2.78,3.49-4.88,6.22-4.88a7.12,7.12,0,0,1,1,.09l-.67,3.44a5.22,5.22,0,0,0-.92-.08c-3,0-5.72,3.65-6.6,8.4l-1.68,9Z"/><path class="cls-8" d="M375.05,171.55,379,151.22h3.48l-3.9,20.33Zm4.54-26a2.31,2.31,0,0,1,2.31-2.35,2,2,0,0,1,2.06,2.19,2.31,2.31,0,0,1-2.36,2.35A2,2,0,0,1,379.59,145.54Z"/><path class="cls-8" d="M398.19,162.6l-4.49,9H390l14.66-28.32h4.12l3.9,28.32h-3.57l-1.13-9Zm9.5-2.77-1.1-8.19c-.16-1.47-.37-3.53-.5-5.21H406c-.76,1.68-1.48,3.44-2.32,5.16l-4.24,8.24Z"/><path class="cls-8" d="M415.87,169.53a2.67,2.67,0,0,1,2.65-2.81,2.32,2.32,0,0,1,2.35,2.52,2.67,2.67,0,0,1-2.69,2.77A2.32,2.32,0,0,1,415.87,169.53Z"/><path class="cls-8" d="M442.08,147.1a9.46,9.46,0,0,0-4.91-1.3c-3.49,0-5.59,2.31-5.59,4.62S433,154,436,155.67c3.49,1.85,5.42,4.07,5.42,7.56,0,4.16-2.77,7.56-7.48,8.48l-1.43,1.94a2.76,2.76,0,0,1,2.27,2.73c0,2.39-2.31,3.61-4.54,3.61a4.86,4.86,0,0,1-2.77-.76l.76-1.8a4,4,0,0,0,2.1.63c1,0,1.85-.51,1.85-1.47s-.88-1.51-2.73-1.68l2.1-2.94h-.34c-2.85,0-5.63-.93-6.8-1.94l1.26-2.85a10.69,10.69,0,0,0,6,1.8c3.2,0,6.14-1.89,6.14-5.33,0-2.1-1.22-3.66-4.16-5.29-3.62-1.94-5.63-4.2-5.63-7.27,0-5,4.37-8.32,9.58-8.32a10.83,10.83,0,0,1,5.79,1.51Z"/><path class="cls-8" d="M444.31,169.53a2.67,2.67,0,0,1,2.64-2.81,2.32,2.32,0,0,1,2.35,2.52,2.67,2.67,0,0,1-2.68,2.77A2.32,2.32,0,0,1,444.31,169.53Z"/></g></g></svg>